<svg width="123" height="15" viewBox="0 0 123 15" fill="none" xmlns="http://www.w3.org/2000/svg">
<path d="M67.7383 14.2798V0.279785H70.4783L75.5583 8.55979L73.7783 8.53979L78.9383 0.279785H81.5783V14.2798H78.6383V9.53979C78.6383 8.32645 78.665 7.23312 78.7183 6.25979C78.785 5.28645 78.8916 4.32645 79.0383 3.37979L79.3783 4.31979L75.2783 10.6598H73.9383L69.9383 4.35979L70.2583 3.37979C70.4183 4.27312 70.525 5.19312 70.5783 6.13979C70.645 7.08645 70.6783 8.21979 70.6783 9.53979V14.2798H67.7383Z" fill="white" style="fill:white;fill-opacity:1;"/>
<path d="M55.8428 14.2798V0.279785H65.2828V2.91979H58.7828V11.6398H65.4228V14.2798H55.8428ZM57.2428 8.41979V5.85979H64.3228V8.41979H57.2428Z" fill="white" style="fill:white;fill-opacity:1;"/>
<path d="M48.5662 14.48C47.2595 14.48 46.1395 14.2467 45.2062 13.78C44.2862 13.3 43.4928 12.6067 42.8262 11.7L44.7062 9.58C45.3595 10.4867 46.0062 11.1067 46.6462 11.44C47.2995 11.76 47.9995 11.92 48.7462 11.92C49.1595 11.92 49.5262 11.86 49.8462 11.74C50.1795 11.62 50.4395 11.4533 50.6262 11.24C50.8262 11.0267 50.9262 10.78 50.9262 10.5C50.9262 10.2867 50.8795 10.0933 50.7862 9.92C50.6928 9.73333 50.5595 9.57333 50.3862 9.44C50.2128 9.29333 50.0062 9.16667 49.7662 9.06C49.5262 8.94 49.2595 8.84 48.9662 8.76C48.6728 8.68 48.3528 8.60667 48.0062 8.54C47.2595 8.38 46.6062 8.17333 46.0462 7.92C45.4862 7.66667 45.0195 7.36 44.6462 7C44.2728 6.64 43.9928 6.22667 43.8062 5.76C43.6328 5.28 43.5462 4.74667 43.5462 4.16C43.5462 3.33333 43.7795 2.61333 44.2462 2C44.7128 1.37333 45.3328 0.886667 46.1062 0.54C46.8795 0.18 47.7328 0 48.6662 0C49.9328 0 50.9728 0.213333 51.7862 0.64C52.6128 1.06667 53.2728 1.66667 53.7662 2.44L51.8462 4.32C51.4328 3.74667 50.9595 3.31333 50.4262 3.02C49.8928 2.72667 49.3195 2.58 48.7062 2.58C48.2795 2.58 47.8995 2.64 47.5662 2.76C47.2462 2.86667 46.9995 3.03333 46.8262 3.26C46.6528 3.47333 46.5662 3.72667 46.5662 4.02C46.5662 4.26 46.6262 4.47333 46.7462 4.66C46.8662 4.84667 47.0328 5.01333 47.2462 5.16C47.4728 5.29333 47.7462 5.41333 48.0662 5.52C48.3862 5.62667 48.7395 5.71333 49.1262 5.78C49.8595 5.92667 50.5195 6.12667 51.1062 6.38C51.6928 6.62 52.1928 6.91333 52.6062 7.26C53.0328 7.60667 53.3595 8.00667 53.5862 8.46C53.8128 8.91333 53.9262 9.42 53.9262 9.98C53.9262 10.9267 53.6995 11.7333 53.2462 12.4C52.7928 13.0667 52.1662 13.58 51.3662 13.94C50.5662 14.3 49.6328 14.48 48.5662 14.48Z" fill="white" style="fill:white;fill-opacity:1;"/>
<path d="M35.6642 14.3998C34.5308 14.3998 33.5175 14.1664 32.6242 13.6998C31.7442 13.2198 31.0508 12.5664 30.5442 11.7398C30.0375 10.8998 29.7842 9.9531 29.7842 8.89977V0.259766H32.7842V8.71977C32.7842 9.27977 32.9108 9.78643 33.1642 10.2398C33.4308 10.6798 33.7842 11.0331 34.2242 11.2998C34.6642 11.5664 35.1442 11.6998 35.6642 11.6998C36.2108 11.6998 36.7042 11.5664 37.1442 11.2998C37.5975 11.0331 37.9508 10.6798 38.2042 10.2398C38.4708 9.78643 38.6042 9.27977 38.6042 8.71977V0.259766H41.5042V8.89977C41.5042 9.9531 41.2508 10.8998 40.7442 11.7398C40.2508 12.5664 39.5642 13.2198 38.6842 13.6998C37.8042 14.1664 36.7975 14.3998 35.6642 14.3998Z" fill="white" style="fill:white;fill-opacity:1;"/>
<path d="M20.8886 14.48C19.8619 14.48 18.9086 14.3 18.0286 13.94C17.1619 13.58 16.4086 13.08 15.7686 12.44C15.1419 11.7867 14.6486 11.02 14.2886 10.14C13.9419 9.26 13.7686 8.29333 13.7686 7.24C13.7686 6.2 13.9419 5.24 14.2886 4.36C14.6486 3.48 15.1419 2.71333 15.7686 2.06C16.4086 1.40667 17.1619 0.9 18.0286 0.54C18.9086 0.18 19.8619 0 20.8886 0C21.9152 0 22.8552 0.18 23.7086 0.54C24.5752 0.9 25.3286 1.40667 25.9686 2.06C26.6086 2.71333 27.1019 3.48667 27.4486 4.38C27.8086 5.26 27.9886 6.21333 27.9886 7.24C27.9886 8.28 27.8086 9.24 27.4486 10.12C27.1019 11 26.6086 11.7667 25.9686 12.42C25.3286 13.0733 24.5752 13.58 23.7086 13.94C22.8552 14.3 21.9152 14.48 20.8886 14.48ZM20.8886 11.64C21.4752 11.64 22.0152 11.5333 22.5086 11.32C23.0019 11.0933 23.4286 10.7867 23.7886 10.4C24.1619 10 24.4486 9.53333 24.6486 9C24.8486 8.46667 24.9486 7.88 24.9486 7.24C24.9486 6.61333 24.8486 6.03333 24.6486 5.5C24.4486 4.96667 24.1619 4.5 23.7886 4.1C23.4286 3.7 23.0019 3.39333 22.5086 3.18C22.0152 2.95333 21.4752 2.84 20.8886 2.84C20.3019 2.84 19.7552 2.95333 19.2486 3.18C18.7552 3.39333 18.3219 3.7 17.9486 4.1C17.5886 4.48667 17.3086 4.95333 17.1086 5.5C16.9086 6.03333 16.8086 6.62 16.8086 7.26C16.8086 8.1 16.9819 8.85333 17.3286 9.52C17.6886 10.1733 18.1686 10.6933 18.7686 11.08C19.3819 11.4533 20.0886 11.64 20.8886 11.64Z" fill="white" style="fill:white;fill-opacity:1;"/>
<path d="M8.84 14.2798V0.279785H11.84V14.2798H8.84ZM0 14.2798V0.279785H3V14.2798H0ZM1.22 8.67979V5.91979H10.36V8.67979H1.22Z" fill="white" style="fill:white;fill-opacity:1;"/>
<path d="M110.2 14.2803V0.280273H115.96C116.974 0.280273 117.9 0.453607 118.74 0.800274C119.58 1.13361 120.3 1.61361 120.9 2.24027C121.5 2.85361 121.96 3.59361 122.28 4.46027C122.6 5.31361 122.76 6.25361 122.76 7.28027C122.76 8.32027 122.6 9.26694 122.28 10.1203C121.96 10.9736 121.5 11.7136 120.9 12.3403C120.3 12.9536 119.58 13.4336 118.74 13.7803C117.914 14.1136 116.987 14.2803 115.96 14.2803H110.2ZM113.2 12.0803L112.88 11.5803H115.86C116.46 11.5803 116.994 11.4803 117.46 11.2803C117.94 11.0803 118.347 10.7936 118.68 10.4203C119.027 10.0336 119.287 9.58027 119.46 9.06027C119.634 8.52694 119.72 7.93361 119.72 7.28027C119.72 6.62694 119.634 6.04027 119.46 5.52027C119.287 4.98694 119.027 4.53361 118.68 4.16027C118.347 3.77361 117.94 3.48027 117.46 3.28027C116.994 3.08027 116.46 2.98027 115.86 2.98027H112.82L113.2 2.52027V12.0803Z" fill="white" style="fill:white;fill-opacity:1;"/>
</svg>
